<?xml version="1.0" ?><svg id="Capa_1" style="enable-background:new 0 0 512 512;" version="1.1" viewBox="0 0 512 512" xml:space="preserve" xmlns="http://www.w3.org/2000/svg" xmlns:xlink="http://www.w3.org/1999/xlink"><style type="text/css">
	.st0{fill:#232323;}
</style><g><path class="st0" d="M264.4,68.3c-2.7-1.6-6.1-1.6-8.8,0L99.7,159.4H29.3C13.1,159.4,0,172.5,0,188.6v138.5   c0,16.1,13.1,29.3,29.3,29.3h70.4l155.8,95.4c1.4,0.9,3,1.3,4.6,1.3c1.5,0,3-0.4,4.3-1.1c2.8-1.6,4.5-4.5,4.5-7.7v-50.1   c0-4.9-4-8.8-8.8-8.8c-4.9,0-8.8,3.9-8.8,8.8v34.4l-140.2-85.9V173.3l140.2-82v260.5c0,4.9,4,8.8,8.8,8.8c4.9,0,8.8-3.9,8.8-8.8   V75.9C268.8,72.8,267.1,69.9,264.4,68.3z M17.6,327.2V188.6c0-6.4,5.2-11.6,11.6-11.6h64.1v161.8H29.3   C22.9,338.8,17.6,333.6,17.6,327.2z"/><path class="st0" d="M340.9,316.9c-4.5-2-9.7,0-11.6,4.5c-1.1,2.4-2.2,4.8-3.4,7.1c-2.3,4.3-0.7,9.6,3.6,11.9c1.3,0.7,2.7,1,4.1,1   c3.2,0,6.2-1.7,7.8-4.7c1.4-2.6,2.7-5.4,4-8.2C347.4,324.1,345.3,318.9,340.9,316.9z"/><path class="st0" d="M327.8,175.5c-4.2,2.4-5.7,7.8-3.3,12c10.8,19,16.8,44.4,16.8,71.6c0,5.8-0.3,11.7-0.8,17.3   c-0.5,4.8,3.1,9.2,7.9,9.6c0.3,0,0.6,0,0.9,0c4.5,0,8.3-3.4,8.8-8c0.6-6.2,0.9-12.6,0.9-19c0-30.2-6.8-58.7-19.1-80.3   C337.5,174.6,332.1,173.1,327.8,175.5z"/><path class="st0" d="M412.4,181.5c-4.7,1.2-7.6,6-6.4,10.7c5.4,21.8,8.2,44.7,8.2,68.2c0,51.4-13.4,100.3-37.8,137.6   c-2.7,4.1-1.5,9.5,2.6,12.2c1.5,1,3.2,1.4,4.8,1.4c2.9,0,5.7-1.4,7.4-4c26.2-40.2,40.7-92.4,40.7-147.3c0-24.9-2.9-49.2-8.7-72.4   C421.9,183.2,417.1,180.3,412.4,181.5z"/><path class="st0" d="M397.8,151.8c1.3,0,2.6-0.3,3.8-0.9c4.4-2.1,6.3-7.4,4.2-11.8c-5.3-11.1-11.4-21.6-18-31.2   c-2.8-4-8.3-5-12.3-2.2c-4,2.8-5,8.3-2.2,12.3c6.1,8.8,11.7,18.4,16.6,28.7C391.3,149.9,394.5,151.8,397.8,151.8z"/><path class="st0" d="M474.8,411.4c-4.4-2-9.7,0-11.6,4.5c-6.7,15.1-14.4,29.3-22.9,42.3c-2.7,4.1-1.5,9.5,2.6,12.2   c1.5,1,3.2,1.4,4.8,1.4c2.9,0,5.7-1.4,7.4-4c9-13.8,17.2-28.9,24.2-44.8C481.2,418.6,479.2,413.3,474.8,411.4z"/><path class="st0" d="M450.2,47.8c-2.8-4-8.3-5-12.3-2.2c-4,2.8-5,8.3-2.2,12.3c37.8,54.2,58.6,126.5,58.6,203.5   c0,31.4-3.5,62.2-10.3,91.6c-1.1,4.7,1.8,9.5,6.6,10.6c0.7,0.2,1.3,0.2,2,0.2c4,0,7.6-2.8,8.6-6.8c7.2-30.7,10.8-62.9,10.8-95.6   C512,180.8,490.1,105,450.2,47.8z"/></g></svg>